<svg xmlns="http://www.w3.org/2000/svg" viewBox="0 0 200 200" width="200" height="200">
  <defs>
    <linearGradient id="layerGrad" x1="0%" y1="0%" x2="100%" y2="0%">
      <stop offset="0%" stop-color="#38bdf8"/>
      <stop offset="50%" stop-color="#7c3aed"/>
      <stop offset="100%" stop-color="#9333ea"/>
    </linearGradient>
    <linearGradient id="layerGrad2" x1="0%" y1="0%" x2="100%" y2="0%">
      <stop offset="0%" stop-color="#6366f1" stop-opacity="0.7"/>
      <stop offset="100%" stop-color="#9333ea" stop-opacity="0.7"/>
    </linearGradient>
    <linearGradient id="layerGrad3" x1="0%" y1="0%" x2="100%" y2="0%">
      <stop offset="0%" stop-color="#6366f1" stop-opacity="0.4"/>
      <stop offset="100%" stop-color="#9333ea" stop-opacity="0.4"/>
    </linearGradient>
    <linearGradient id="arrowGrad" x1="0%" y1="100%" x2="100%" y2="0%">
      <stop offset="0%" stop-color="#38bdf8"/>
      <stop offset="100%" stop-color="#6366f1"/>
    </linearGradient>
    <filter id="glow" x="-20%" y="-20%" width="140%" height="140%">
      <feGaussianBlur stdDeviation="3" result="blur"/>
      <feMerge><feMergeNode in="blur"/><feMergeNode in="SourceGraphic"/></feMerge>
    </filter>
    <filter id="softglow" x="-30%" y="-30%" width="160%" height="160%">
      <feGaussianBlur stdDeviation="5" result="blur"/>
      <feMerge><feMergeNode in="blur"/><feMergeNode in="SourceGraphic"/></feMerge>
    </filter>
  </defs>

  <!-- Layer 3 (bottom) — most faded -->
  <path d="M40,148 L100,172 L160,148 L100,162 Z" fill="url(#layerGrad3)" rx="4"/>

  <!-- Layer 2 (middle) -->
  <path d="M34,128 L100,154 L166,128 L100,142 Z" fill="url(#layerGrad2)"/>

  <!-- Layer 1 (top) — brightest -->
  <path d="M28,108 L100,136 L172,108 L100,122 Z" fill="url(#layerGrad)" filter="url(#glow)"/>

  <!-- Network graph nodes + lines on top of layers -->
  <!-- Lines connecting nodes -->
  <line x1="72" y1="95" x2="95" y2="82" stroke="url(#arrowGrad)" stroke-width="2.5" stroke-linecap="round"/>
  <line x1="95" y1="82" x2="118" y2="90" stroke="url(#arrowGrad)" stroke-width="2.5" stroke-linecap="round"/>
  <line x1="118" y1="90" x2="138" y2="72" stroke="url(#arrowGrad)" stroke-width="2.5" stroke-linecap="round"/>

  <!-- Node dots -->
  <circle cx="72"  cy="95" r="5" fill="#38bdf8" filter="url(#glow)"/>
  <circle cx="95"  cy="82" r="5" fill="#5b87f5" filter="url(#glow)"/>
  <circle cx="118" cy="90" r="5" fill="#7c6cf0" filter="url(#glow)"/>

  <!-- Upward arrow (top right of graph) -->
  <!-- Arrow shaft -->
  <line x1="124" y1="84" x2="147" y2="52" stroke="url(#arrowGrad)" stroke-width="4" stroke-linecap="round" filter="url(#softglow)"/>
  <!-- Arrow head -->
  <polygon points="147,52 133,55 144,66" fill="#38bdf8" filter="url(#softglow)"/>
</svg>
